<svg width="75" height="314" viewBox="0 0 75 314" fill="none" xmlns="http://www.w3.org/2000/svg">
<g filter="url(#filter0_d_10_2)">
<path d="M20 1L31.4339 34.8152C39.2112 57.8162 38.3545 82.8611 29.0235 105.277L13.3574 142.912C4.70629 163.694 3.32046 186.788 9.4241 208.456L20 246" stroke="white" stroke-width="2"/>
</g>
<g filter="url(#filter1_d_10_2)">
<mask id="path-2-inside-1_10_2" fill="white">
<path d="M46.3771 262.108C45.4473 259.151 44.0332 256.379 42.2154 253.949C40.3976 251.519 38.2118 249.479 35.7828 247.946C33.3537 246.413 30.729 245.416 28.0584 245.013C25.3879 244.609 22.7238 244.807 20.2184 245.595C17.7129 246.383 15.4151 247.745 13.4562 249.605C11.4972 251.464 9.91549 253.784 8.80129 256.431C7.68709 259.079 7.06224 262.003 6.96242 265.036C6.8626 268.069 7.28975 271.151 8.2195 274.108L27.2983 268.108L46.3771 262.108Z"/>
</mask>
<path d="M46.3771 262.108C45.4473 259.151 44.0332 256.379 42.2154 253.949C40.3976 251.519 38.2118 249.479 35.7828 247.946C33.3537 246.413 30.729 245.416 28.0584 245.013C25.3879 244.609 22.7238 244.807 20.2184 245.595C17.7129 246.383 15.4151 247.745 13.4562 249.605C11.4972 251.464 9.91549 253.784 8.80129 256.431C7.68709 259.079 7.06224 262.003 6.96242 265.036C6.8626 268.069 7.28975 271.151 8.2195 274.108L27.2983 268.108L46.3771 262.108Z" stroke="white" stroke-width="4" shape-rendering="crispEdges" mask="url(#path-2-inside-1_10_2)"/>
</g>
<g filter="url(#filter2_d_10_2)">
<path d="M21.4453 270.599L21.0438 269.153L18.1533 269.956L18.5547 271.401L21.4453 270.599ZM22.2165 284.584C22.4382 285.382 23.265 285.849 24.0632 285.628C24.8615 285.406 25.3288 284.579 25.1071 283.781L22.2165 284.584ZM18.5547 271.401L22.2165 284.584L25.1071 283.781L21.4453 270.599L18.5547 271.401Z" fill="white"/>
</g>
<g filter="url(#filter3_d_10_2)">
<path d="M36.4453 266.599L36.0438 265.153L33.1533 265.956L33.5547 267.401L36.4453 266.599ZM37.2165 280.584C37.4382 281.382 38.265 281.849 39.0632 281.628C39.8615 281.406 40.3288 280.579 40.1071 279.781L37.2165 280.584ZM33.5547 267.401L37.2165 280.584L40.1071 279.781L36.4453 266.599L33.5547 267.401Z" fill="white"/>
</g>
<defs>
<filter id="filter0_d_10_2" x="4.6781" y="0.679688" width="61.0247" height="273.591" filterUnits="userSpaceOnUse" color-interpolation-filters="sRGB">
<feFlood flood-opacity="0" result="BackgroundImageFix"/>
<feColorMatrix in="SourceAlpha" type="matrix" values="0 0 0 0 0 0 0 0 0 0 0 0 0 0 0 0 0 0 127 0" result="hardAlpha"/>
<feOffset dx="20" dy="20"/>
<feGaussianBlur stdDeviation="4"/>
<feComposite in2="hardAlpha" operator="out"/>
<feColorMatrix type="matrix" values="0 0 0 0 0 0 0 0 0 0 0 0 0 0 0 0 0 0 1 0"/>
<feBlend mode="normal" in2="BackgroundImageFix" result="effect1_dropShadow_10_2"/>
<feBlend mode="normal" in="SourceGraphic" in2="effect1_dropShadow_10_2" result="shape"/>
</filter>
<filter id="filter1_d_10_2" x="6.94821" y="244.809" width="67.4288" height="57.2985" filterUnits="userSpaceOnUse" color-interpolation-filters="sRGB">
<feFlood flood-opacity="0" result="BackgroundImageFix"/>
<feColorMatrix in="SourceAlpha" type="matrix" values="0 0 0 0 0 0 0 0 0 0 0 0 0 0 0 0 0 0 127 0" result="hardAlpha"/>
<feOffset dx="20" dy="20"/>
<feGaussianBlur stdDeviation="4"/>
<feComposite in2="hardAlpha" operator="out"/>
<feColorMatrix type="matrix" values="0 0 0 0 0 0 0 0 0 0 0 0 0 0 0 0 0 0 1 0"/>
<feBlend mode="normal" in2="BackgroundImageFix" result="effect1_dropShadow_10_2"/>
<feBlend mode="normal" in="SourceGraphic" in2="effect1_dropShadow_10_2" result="shape"/>
</filter>
<filter id="filter2_d_10_2" x="18.1533" y="269.153" width="35.0089" height="44.5295" filterUnits="userSpaceOnUse" color-interpolation-filters="sRGB">
<feFlood flood-opacity="0" result="BackgroundImageFix"/>
<feColorMatrix in="SourceAlpha" type="matrix" values="0 0 0 0 0 0 0 0 0 0 0 0 0 0 0 0 0 0 127 0" result="hardAlpha"/>
<feOffset dx="20" dy="20"/>
<feGaussianBlur stdDeviation="4"/>
<feComposite in2="hardAlpha" operator="out"/>
<feColorMatrix type="matrix" values="0 0 0 0 0 0 0 0 0 0 0 0 0 0 0 0 0 0 1 0"/>
<feBlend mode="normal" in2="BackgroundImageFix" result="effect1_dropShadow_10_2"/>
<feBlend mode="normal" in="SourceGraphic" in2="effect1_dropShadow_10_2" result="shape"/>
</filter>
<filter id="filter3_d_10_2" x="33.1533" y="265.153" width="35.0089" height="44.5295" filterUnits="userSpaceOnUse" color-interpolation-filters="sRGB">
<feFlood flood-opacity="0" result="BackgroundImageFix"/>
<feColorMatrix in="SourceAlpha" type="matrix" values="0 0 0 0 0 0 0 0 0 0 0 0 0 0 0 0 0 0 127 0" result="hardAlpha"/>
<feOffset dx="20" dy="20"/>
<feGaussianBlur stdDeviation="4"/>
<feComposite in2="hardAlpha" operator="out"/>
<feColorMatrix type="matrix" values="0 0 0 0 0 0 0 0 0 0 0 0 0 0 0 0 0 0 1 0"/>
<feBlend mode="normal" in2="BackgroundImageFix" result="effect1_dropShadow_10_2"/>
<feBlend mode="normal" in="SourceGraphic" in2="effect1_dropShadow_10_2" result="shape"/>
</filter>
</defs>
</svg>
